<?xml version="1.0" encoding="utf-8"?>
<!-- Generator: Adobe Illustrator 27.5.0, SVG Export Plug-In . SVG Version: 6.00 Build 0)  -->
<svg version="1.1" xmlns="http://www.w3.org/2000/svg" xmlns:xlink="http://www.w3.org/1999/xlink" x="0px" y="0px"
	 viewBox="0 0 500 500" style="enable-background:new 0 0 500 500;" xml:space="preserve">
<g id="Floor">
	<path id="Floor_00000044158936464992506340000013723684052025105798_" style="fill:#FAFAFA;" d="M111.081,290.445
		c-76.72,44.295-76.718,116.111,0.004,160.405c76.723,44.295,201.113,44.295,277.833,0c76.72-44.295,76.718-116.111-0.004-160.405
		C312.192,246.151,187.802,246.151,111.081,290.445z"/>
</g>
<g id="Shadow">
	<path id="Shadow_00000135688590809255704290000016521125528165978775_" style="fill:#E0E0E0;" d="M315.37,446.809
		c34.238-19.767,34.234-51.816-0.008-71.583c-34.242-19.767-89.753-19.769-123.987-0.004c-34.234,19.765-34.23,51.814,0.008,71.583
		C225.622,466.574,281.132,466.576,315.37,446.809z"/>
</g>
<g id="Dots">
	<g id="Circles_00000173157348148708509040000002010857247408790950_">
		<g>
			<path style="fill:#F5F5F5;" d="M39.726,144.609c0,2.144,1.738,3.883,3.883,3.883c2.144,0,3.882-1.738,3.882-3.883
				s-1.738-3.883-3.882-3.883C41.464,140.726,39.726,142.464,39.726,144.609z"/>
		</g>
		<g>
			<path style="fill:#F5F5F5;" d="M454.408,245.197c0,2.144,1.738,3.883,3.883,3.883c2.144,0,3.883-1.738,3.883-3.883
				c0-2.144-1.738-3.883-3.883-3.883C456.146,241.315,454.408,243.053,454.408,245.197z"/>
		</g>
		<g>
			<path style="fill:#F5F5F5;" d="M380.51,64.038c0,2.144,1.738,3.883,3.883,3.883c2.144,0,3.882-1.738,3.882-3.883
				c0-2.144-1.738-3.883-3.882-3.883C382.249,60.156,380.51,61.894,380.51,64.038z"/>
		</g>
		<g>
			<path style="fill:#F5F5F5;" d="M462.173,177.941c0,2.144,1.738,3.883,3.883,3.883c2.144,0,3.883-1.738,3.883-3.883
				s-1.738-3.882-3.883-3.882C463.911,174.059,462.173,175.797,462.173,177.941z"/>
		</g>
		<g>
			<path style="fill:#F5F5F5;" d="M39.726,249.08c0,2.144,1.738,3.882,3.883,3.882c2.144,0,3.882-1.738,3.882-3.882
				c0-2.144-1.738-3.883-3.882-3.883C41.464,245.197,39.726,246.936,39.726,249.08z"/>
		</g>
		<g>
			<path style="fill:#F5F5F5;" d="M91.023,141.43c0-5.621,4.574-10.195,10.196-10.195c5.623,0,10.197,4.574,10.197,10.195
				c0,5.621-4.574,10.195-10.197,10.195C95.598,151.625,91.023,147.051,91.023,141.43z M92.638,141.43
				c0,4.732,3.849,8.581,8.581,8.581c4.732,0,8.582-3.849,8.582-8.581s-3.851-8.581-8.582-8.581
				C96.487,132.849,92.638,136.698,92.638,141.43z"/>
		</g>
		<g>
			<path style="fill:#F5F5F5;" d="M412.313,148.466c0-5.621,4.574-10.196,10.195-10.196c5.623,0,10.197,4.574,10.197,10.196
				c0,5.621-4.574,10.195-10.197,10.195C416.888,158.661,412.313,154.087,412.313,148.466z M413.928,148.466
				c0,4.732,3.849,8.581,8.581,8.581c4.732,0,8.583-3.849,8.583-8.581c0-4.732-3.85-8.581-8.583-8.581
				C417.777,139.885,413.928,143.734,413.928,148.466z"/>
		</g>
		<g>
			<path style="fill:#F5F5F5;" d="M441.393,80.737c0-5.621,4.574-10.195,10.196-10.195c5.623,0,10.197,4.574,10.197,10.195
				c0,5.621-4.574,10.196-10.197,10.196C445.967,90.933,441.393,86.359,441.393,80.737z M443.008,80.737
				c0,4.732,3.849,8.581,8.581,8.581c4.732,0,8.583-3.849,8.583-8.581c0-4.732-3.851-8.581-8.583-8.581
				C446.857,72.157,443.008,76.005,443.008,80.737z"/>
		</g>
		<g>
			<path style="fill:#F5F5F5;" d="M47.959,71.356c0-5.621,4.574-10.195,10.195-10.195c5.623,0,10.197,4.574,10.197,10.195
				s-4.574,10.196-10.197,10.196C52.533,81.552,47.959,76.978,47.959,71.356z M49.573,71.356c0,4.732,3.849,8.581,8.581,8.581
				c4.732,0,8.583-3.849,8.583-8.581s-3.851-8.581-8.583-8.581C53.422,62.776,49.573,66.624,49.573,71.356z"/>
		</g>
	</g>
</g>
<g id="Circle_00000181771148296187697780000011456909495728064907_">
	<circle id="Circle" style="opacity:0.15;fill:#BA68C8;" cx="253.375" cy="126.396" r="109.539"/>
</g>
<g id="Character">
	<g id="Chartacter_00000073686553330899477810000001925155379441132195_">
		<g id="Bottom_00000084495262564586551580000006247234402403266204_">
			<g>
				<path style="fill:#C8856A;" d="M268.131,374.55l-2.048-19.083l21.844,1.439c0,0-0.332,10.358-0.638,16.22
					c-0.181,3.467,4.49,9.901,4.49,9.901s-10.262,5.5-15.759,3.575c-5.497-1.925-8.406-8.764-8.329-10.256
					C267.767,374.854,268.131,374.55,268.131,374.55z"/>
				<path style="fill:#263238;" d="M320.738,404.358c0.345-0.006,0.922,3.539-0.925,5.082c-2.132,1.78-8.429,4.752-16.827,3.88
					c-8.398-0.871-12.976-3.22-16.372-5.789c-3.396-2.569-8.156-6.193-11.96-6.91c-3.533-0.667-7.382-2.094-8.526-3.094
					c-1.144-0.999-1.06-5.53-1.06-5.53L320.738,404.358z"/>
				<path id="XMLID_1343_" style="fill:#455A64;" d="M268.127,374.514c0,0-1.052,0.029-1.251,1.081
					c-0.238,1.252-0.458,4.885-0.979,6.943c-0.723,2.86-1.144,8.703-0.646,11.015c0.499,2.313,6.267,3.827,9.956,5.072
					c3.769,1.271,8.148,3.95,12,6.82c3.988,2.971,12.324,5.991,17.786,5.861c6.462-0.155,13.708-2.237,15.33-5.069
					c2.007-3.505,3.445-7.561-6.205-11.552c-1.827-0.755-8.256-4.175-10.449-5.417c-5.932-3.36-10.117-6.465-12.92-12.543
					c-0.327-0.71-0.672-1.497-1.408-1.849c-0.564-0.269-1.239-0.218-1.866-0.125c-1.593,0.237-7.948,1.167-9.393,1.84
					c-1.277,0.596-3.09,1.294-3.038,2.835c0.019,0.536,0.193,1.056,0.387,1.56c0.12,0.313,0.217,0.73-0.075,0.921
					c-0.275,0.18-0.647-0.014-0.9-0.219c-1.017-0.824-1.77-1.889-2.63-2.857c-0.461-0.518-0.962-1.014-1.54-1.42
					c-0.525-0.368-1.19-0.546-1.657-0.967C268.037,375.912,268.166,375.236,268.127,374.514z"/>
				<path style="fill:#37474F;" d="M287.207,405.445c-1.693-1.261-3.487-2.477-5.287-3.561v-0.008c0,0,11.374,6.218,15.881,3.23
					c2.904-1.925,1.471-4.179,1.389-4.905c-0.083-0.727,10.192-6.042,13.036-6.407l0,0c0.801,0.397,1.471,0.716,1.892,0.89
					c9.65,3.991,8.212,8.048,6.205,11.552c-1.622,2.832-6.858,5.11-15.211,5.253C299.648,411.583,291.194,408.416,287.207,405.445z"
					/>
				<path style="fill:#37474F;" d="M298.367,398.093c5.995,2.128,3.47,3.212,1.805,3.464c-1.665,0.252-11.784-5.058-17.975-9.482
					c-6.457-4.614-10.564-9.709-12.963-11.403c-0.894-0.632-1.858-1.41-2.716-2.138c0.137-1.23,0.246-2.349,0.358-2.939
					c0.2-1.052,1.251-1.081,1.251-1.081c0.039,0.723-0.09,1.398,0.502,1.931c0.467,0.421,1.132,0.598,1.657,0.967
					c0.578,0.406,1.079,0.902,1.54,1.42c0.861,0.968,1.613,2.033,2.63,2.857C279.761,387.778,292.372,395.965,298.367,398.093z"/>
				<g>
					<g>
						<path style="fill:#263238;" d="M299.735,400.744c-0.132,0.002-0.264-0.036-0.375-0.118c-0.256-0.188-0.299-0.535-0.096-0.775
							c1.651-1.956,9.548-6.664,13.939-6.289c0.326,0.026,0.564,0.296,0.533,0.599c-0.029,0.303-0.284,0.518-0.641,0.5
							c-4.1-0.341-11.599,4.323-12.907,5.873C300.075,400.669,299.906,400.741,299.735,400.744z"/>
					</g>
					<g>
						<path style="fill:#263238;" d="M294.489,397.84c-0.132,0.002-0.264-0.036-0.375-0.118c-0.256-0.188-0.298-0.535-0.096-0.775
							c1.65-1.954,9.544-6.659,13.939-6.287c0.325,0.027,0.564,0.296,0.533,0.598c-0.029,0.303-0.309,0.527-0.641,0.501
							c-4.103-0.336-11.599,4.322-12.907,5.871C294.829,397.765,294.66,397.837,294.489,397.84z"/>
					</g>
					<g>
						<path style="fill:#263238;" d="M289.243,395.094c-0.131,0.002-0.264-0.036-0.375-0.118c-0.256-0.188-0.297-0.535-0.096-0.775
							c1.651-1.956,9.547-6.667,13.939-6.287c0.325,0.026,0.564,0.296,0.533,0.599c-0.029,0.302-0.303,0.526-0.641,0.5
							c-4.103-0.342-11.599,4.321-12.907,5.871C289.583,395.019,289.414,395.091,289.243,395.094z"/>
					</g>
					<g>
						<path style="fill:#263238;" d="M284.373,391.938c-0.132,0.002-0.264-0.036-0.375-0.118c-0.256-0.188-0.297-0.535-0.096-0.775
							c1.649-1.956,9.564-6.663,13.939-6.287c0.325,0.027,0.564,0.296,0.533,0.598c-0.03,0.303-0.306,0.526-0.642,0.501
							c-4.097-0.339-11.599,4.321-12.907,5.871C284.713,391.863,284.545,391.936,284.373,391.938z"/>
					</g>
					<g>
						<path style="fill:#263238;" d="M279.601,388.781c-0.128,0.002-0.258-0.034-0.368-0.113c-0.259-0.184-0.306-0.531-0.108-0.773
							c2.267-2.771,10.553-6.734,14.943-6.36c0.325,0.026,0.564,0.296,0.533,0.598c-0.03,0.303-0.307,0.518-0.641,0.5
							c-3.952-0.334-11.887,3.474-13.9,5.931C279.946,388.704,279.774,388.778,279.601,388.781z"/>
					</g>
				</g>
			</g>
			<g>
				<path style="fill:#C8856A;" d="M224.015,386.366l4.67-18.162l-22.293-3.052l-0.689,17.512c0,0-2.255,6.285-0.857,8.563
					c1.398,2.278,16.221,4.623,17.572,3.097C223.77,392.799,224.015,386.366,224.015,386.366z"/>
				<path style="fill:#263238;" d="M222.426,425.827c-0.627,5.613-1.788,9.246-4.203,12.295c-2.415,3.049-6.734,3.584-11.018,2.099
					c-4.284-1.485-9.708-4.739-10.728-9.766c-1.02-5.027-0.618-8.342,0.601-13.472L222.426,425.827z"/>
				<path id="XMLID_00000115484927924189805470000000083711195351863981_" style="fill:#455A64;" d="M205.703,382.666
					c-1.788-0.087-1.302,7.599-2.673,15.082c-1.47,8.022-4.369,11.067-5.655,17.634c-1.469,7.503-1.171,10.969,1.639,15.944
					c2.81,4.976,13.293,10.772,18.859,4.785c4.537-4.882,4.985-10.839,4.938-18.51c-0.049-7.93-0.153-13.517,0.48-19.456
					c0.606-5.676,2.239-10.732,0.719-11.551c-0.157,0.825-0.321,1.877-0.485,2.686c-0.126,0.621-0.443,3.696-1.444,3.607
					c-0.059-0.741-0.011-1.419,0.077-2.156c0.077-0.641,0.048-1.354-0.405-1.902c-0.457-0.553-2.164-1.239-2.881-1.451
					c-1.741-0.516-4.85-1.155-6.626-1.509c-0.884-0.176-1.774-0.32-2.666-0.416c-0.723-0.078-1.577-0.125-2.272,0.018
					c-0.427,0.088-0.828,0.307-1,0.661c-0.128,0.262-0.12,0.568-0.133,0.861c-0.024,0.528-0.123,1.047-0.294,1.541
					c-0.075,0.218-0.263,0.472-0.516,0.387c-0.205-0.069-0.277-0.307-0.27-0.496c0.035-0.922,0.197-1.577,0.294-2.643
					c0.044-0.492,0.166-1.157,0.196-1.654C205.617,383.638,205.644,383.15,205.703,382.666z"/>
				<path style="fill:#37474F;" d="M197.878,413.258c-0.223,1.081-1.605,8.249,0.577,9.829c2.361,1.711,3.951-3.865,3.951-3.865
					s5.759-0.869,13.895,3.325c-0.479,1.133,0.622,5.186,2.932,4.632c2.294-0.55,3.563-8.81,3.579-8.918
					c0.014,7.352-0.534,13.11-4.939,17.849c-5.566,5.988-16.05,0.191-18.859-4.785c-2.81-4.976-3.109-8.441-1.639-15.944
					C197.523,414.631,197.693,413.93,197.878,413.258z"/>
				<path style="fill:#37474F;" d="M203.033,419.789c-0.161,2.756-3.194,1.459-3.151-2.455c0.042-3.914,2.869-12.878,3.148-19.587
					c0.483-9.208,0.884-15.17,2.673-15.083c-0.011,0.093-0.013,0.187-0.022,0.28l-0.409,3.836c-0.077,0.556-0.153,1.047-0.175,1.642
					c-0.299,5.625-0.33,16.553-1.11,21.636C203.207,415.142,203.193,417.033,203.033,419.789z"/>
				<path style="fill:#37474F;" d="M215.344,422.357c0.708-2.642,1.283-4.416,2.136-9.484c0.846-5.03,3.814-15.107,5.283-20.524
					c0.478-0.891,0.672-2.621,0.763-3.07c0.153-0.756,0.305-1.716,0.453-2.513c0.015-0.055,0.029-0.111,0.041-0.167
					c1.096,0.61,0.736,4.969,0.166,7.228c-0.57,2.259-1.268,4.68-1.98,7.92c-1.826,6.387-1.965,15.965-3.144,19.642
					C217.884,425.067,214.637,424.999,215.344,422.357z"/>
				<g>
					<g>
						<path style="fill:#263238;" d="M216.466,422.792c-0.082-0.017-0.162-0.048-0.238-0.092c-0.062-0.038-6.402-3.738-13.677-2.891
							c-0.359,0.04-0.71-0.19-0.79-0.512c-0.08-0.324,0.145-0.619,0.502-0.66c7.785-0.906,14.348,2.933,14.626,3.098
							c0.316,0.188,0.426,0.556,0.242,0.823C216.993,422.76,216.724,422.846,216.466,422.792z"/>
					</g>
					<g>
						<path style="fill:#263238;" d="M218.225,416.977c-0.074-0.016-0.146-0.042-0.217-0.08c-0.07-0.038-7.21-3.925-15.314-3.231
							c-0.358,0.025-0.704-0.208-0.773-0.534c-0.068-0.325,0.169-0.614,0.528-0.644c8.572-0.729,15.87,3.251,16.179,3.418
							c0.323,0.18,0.447,0.546,0.276,0.819C218.769,416.939,218.493,417.033,218.225,416.977z"/>
					</g>
					<g>
						<path style="fill:#263238;" d="M203.383,408.026c-0.249-0.052-0.467-0.226-0.543-0.461c-0.102-0.321,0.098-0.632,0.447-0.695
							c8.102-1.451,15.837,3.087,16.163,3.283c0.318,0.188,0.426,0.556,0.242,0.823c-0.183,0.265-0.592,0.322-0.903,0.141
							c-0.073-0.043-7.588-4.444-15.127-3.085C203.57,408.048,203.475,408.045,203.383,408.026z"/>
					</g>
					<g>
						<path style="fill:#263238;" d="M204.084,402.713c-0.244-0.051-0.459-0.221-0.538-0.45c-0.11-0.322,0.083-0.635,0.432-0.703
							c8.918-1.748,16.187,3.071,16.492,3.277c0.304,0.206,0.388,0.577,0.185,0.831c-0.203,0.254-0.621,0.294-0.917,0.089
							c-0.067-0.046-7.062-4.665-15.361-3.041C204.278,402.735,204.179,402.733,204.084,402.713z"/>
					</g>
					<g>
						<path style="fill:#263238;" d="M204.899,396.749c-0.24-0.051-0.454-0.217-0.536-0.443c-0.114-0.319,0.073-0.636,0.421-0.709
							c8.362-1.756,16.27,3.238,16.601,3.454c0.31,0.197,0.402,0.569,0.207,0.828c-0.193,0.26-0.601,0.313-0.912,0.108
							c-0.077-0.049-7.717-4.871-15.481-3.239C205.098,396.77,204.997,396.769,204.899,396.749z"/>
					</g>
				</g>
			</g>
			<g>
				<path id="XMLID_1342_" style="fill:#455A64;" d="M216.536,189.694c-4.184,44.336-5.193,107.803-5.193,107.803
					c-0.364,3.366-2.927,13.4-5.13,29.964c-1.963,14.763,0.01,45.421,0,47.276c0,0,10.475,7.325,20.219,4.188
					c0,0,12.061-45.61,17.389-66.198c5.042-19.483,11.758-50.804,11.758-50.804l3.819,31.856c0,0-0.916,12.865-0.704,21.725
					c0.246,10.305,7.481,51.284,7.481,51.284s11.689,6.606,21.887-1.12c0,0,6.214-59.966,6.711-72.349
					c0.977-24.29,0.775-73.642-2.17-103.513L216.536,189.694z"/>
				<path id="XMLID_1341_" style="fill:#263238;" d="M255.579,261.923l5.534-31.501c0,0,11.772-1.54,17.885-6.977
					c0,0-4.009,7.262-15.132,9.933l-5.459,28.667l0.991,31.734L255.579,261.923z"/>
			</g>
			<path style="fill:#37474F;" d="M205.621,375.143c2.374,3.345,12.216,7.218,20.944,4.353l2.189-8.064
				c-6.586,2.008-17.859,0.631-23.133-3.771V375.143z"/>
			<path style="fill:#37474F;" d="M266.038,367.208c2.902,2.874,14.074,4.456,22.188,0.084l0.45-6.988
				c-6.149,3.147-17.888,3.431-23.823,0.031L266.038,367.208z"/>
		</g>
		<g id="Top_00000015342663154789804820000012996712410368818611_">
			<path style="fill:#BA68C8;" d="M282.652,107.117c9.531,2.187,14.106,3.888,21.279,14.73
				c7.173,10.842,14.189,23.385,16.102,29.125c1.913,5.74,3.173,17.032-0.711,19.913s-36.67-30.33-36.67-30.33V107.117z"/>
			<path id="Chest_00000039112809318110495260000010699629549281752759_" style="fill:#37474F;" d="M243.441,103.427l-3,0.03
				c0,0-23.047,6.914-25.472,7.915c0,0-4.717,15.256-1.353,37.524c0.701,4.636,1.98,17.276,1.921,26.986
				c-0.079,13.121-1.03,30.705-1.03,30.705s16.014,9.198,47.993,7.301c25.108-1.489,31.844-8.192,31.844-8.192
				s-0.965-33.855-1.321-52.359c-0.468-24.303-5.024-41.891-10.371-46.22l-17.418-4.449L243.441,103.427z"/>
			<g id="Head_00000123409672158433300100000015844312888144425887_">
				<g id="XMLID_00000027601588608243515000000001574399121167536265_">
					<path style="fill:#263238;" d="M274.163,57.736c-1.661-2.996-3.793-4.187-5.15-4.655c-1.222-6.069-9.188-10.356-14.112-11.935
						c-6.693-2.146-13.546-0.588-19.861,2.004c-2.24,0.919-4.634,1.718-7.039,1.438c-1.051-0.122-2.253-0.639-2.428-1.683
						c-0.821,0.44-1.255,1.366-1.494,2.266c-0.559,2.106-0.321,4.414,0.655,6.362c-0.942,0.13-1.674,0.889-2.186,1.69
						c-1.588,2.482-1.742,5.778-0.533,8.465c2.558,5.689,8.73,5.721,13.916,7.34c5.143,1.606,10.285,3.212,15.428,4.817
						c4.316,1.348,8.631,2.695,12.947,4.043l-0.18,6.788l0.01,9.736c0,0,2.426-0.7,3.556-2.999c1.13-2.299,2.998-5.489,5.002-13.695
						C275.807,64.968,275.491,60.13,274.163,57.736z"/>
					<path style="fill:#C8856A;" d="M273.093,86.264c-4.977,2.587-7.383-1.339-7.383-1.339l-0.216,18.719
						c2.733,1.87,9.091,11.033-1.381,13.745c-10.859,2.812-22.066-5.704-23.569-11.781l-0.103-5.936c0,0-1.691,0.049-4.377-0.309
						c-4.481-0.584-8.312-3.58-9.772-9.555c-1.76-7.205-1.539-21.067,0.266-30.613c0.696-3.682,1.847-4.717,3.976-5.842
						c5.286-2.792,20.978-3.695,25.351,2.721c-0.501,3.962,0.752,8.291,4.409,9.509c0.281,6.24,1.244,9.24,3.725,10.206
						c2.017,0.786,2.908-2.324,4.242-3.796c1.347-1.461,6.456-2.882,8.799,1.777C279.431,78.513,277.704,83.867,273.093,86.264z"/>
					<path style="fill:#AF6152;" d="M240.44,99.671c5.855-0.192,11.032-1.055,14.449-2.605c3.417-1.55,6.354-6.307,7.234-10.971
						c0.101,3.732-1.358,10.394-6.523,13.283c-5.165,2.89-11.26,3.201-15.09,3.387L240.44,99.671z"/>
				</g>
				<g id="XMLID_00000158725842954724635800000005517532294981149574_">
					<path id="XMLID_00000118363282452335368090000004052362277974312335_" style="fill:#263238;" d="M245.016,64.678l4.967,2.048
						c0.537-1.421-0.141-3.032-1.512-3.597C247.098,62.563,245.552,63.257,245.016,64.678z"/>
					<path id="XMLID_00000146476070567685125340000008650940415397091223_" style="fill:#263238;" d="M228.486,65.663l5.195-1.522
						c-0.37-1.462-1.832-2.306-3.267-1.886C228.979,62.676,228.116,64.201,228.486,65.663z"/>
					<path style="fill:#263238;" d="M233.623,70.107c-0.009,1.057-1.148,1.904-2.542,1.892c-1.395-0.012-2.518-0.879-2.508-1.937
						c0.01-1.057,1.155,0.601,2.55,0.614C232.517,70.689,233.633,69.05,233.623,70.107z"/>
					<path style="fill:#263238;" d="M249.807,70.487c-0.009,1.057-1.148,1.904-2.542,1.892c-1.395-0.013-2.518-0.879-2.508-1.937
						c0.01-1.057,1.155,0.601,2.55,0.614C248.701,71.068,249.817,69.43,249.807,70.487z"/>
					<path id="XMLID_00000074443369768394412740000008567856227083605921_" style="fill:#AF6152;" d="M240.668,66.726l-1.431,13.978
						l-7.432-2.52C234.294,73.202,237.248,69.382,240.668,66.726z"/>
					<path style="fill:#AF6152;" d="M246.852,84.418c-0.391-0.151-0.827-0.151-1.242-0.162c-0.406-0.011-0.813,0.007-1.215,0.064
						c-0.616,0.086-1.229,0.203-1.832,0.358c-1.19,0.306-2.562,0.793-3.431,1.691c-0.252,0.261,0.217,0.757,0.51,0.645
						c0.618-0.237,1.201-0.552,1.814-0.803c0.599-0.245,1.228-0.423,1.857-0.576c0.604-0.147,1.216-0.234,1.829-0.334
						c0.327-0.053,0.653-0.11,0.98-0.168c0.302-0.053,0.642-0.064,0.888-0.261C247.166,84.745,246.989,84.471,246.852,84.418z"/>
				</g>
			</g>
			<g id="Arm_00000029746038212253576160000017428121888797913007_">
				<g>
					<path style="fill:#C8856A;" d="M216.548,111.808c-11.526,4.275-17.839,15.922-7.568,31.607
						c8.877,13.556,26.409,29.134,32.116,32.835c9.502,6.163,14.22,5.927,21.979-2.437c9.092-9.801,22.916-25.955,26.841-31.075
						c3.925-5.12,9.659-5.754,12.107-10.657c2.448-4.904,3.124-7.995,5.404-11.92c1.826-3.143,7.218-8.097,8.325-12.253
						c0.586-0.895,1.055-1.792,1.338-2.686c0.491-1.548-0.344-2.653-1.4-2.555c0.467-0.596,0.661-0.942,0.663-2.162
						c0.003-1.427-1.58-1.661-2.349-1.285c-1.532,0.749-4.34,2.517-4.34,2.517c-1.401,0-1.921,0.046-2.473,0.174
						c-0.8,0.186-1.499,0.657-2.178,1.119c-2.134,1.452-4.269,2.905-6.403,4.357c-1.274,0.867-2.554,1.739-3.691,2.78
						c-2.537,2.323-4.076,5.297-5.698,8.271c-1.583,2.902-3.784,5.862-5.939,8.397c-4.171,4.906-32.179,24.768-32.179,24.768
						s-10.172-10.965-17.191-21.655C224.612,115.788,221.622,113.685,216.548,111.808z"/>
					<g>
						<path style="fill:#AF6152;" d="M304.426,114.015c2.654-2.385,5.269-4.809,8.094-6.997c0.813-0.519,1.672-1.489,2.711-1.447
							c1.331,1.028,0.708,3.116,0.062,4.299c-1.927,3.039-4.291,5.705-6.583,8.457c1.423-2.041,4.95-6.622,6.165-8.683
							c0.606-1.103,0.938-2.649,0.194-3.586c0,0-0.036-0.001-0.086,0.008C311.132,108.151,308,111.476,304.426,114.015
							L304.426,114.015z"/>
					</g>
					<g>
						<path style="fill:#AF6152;" d="M300.955,113.117c4.297-4.191,9.11-8.207,14.734-10.449
							C310.459,105.505,305.659,109.482,300.955,113.117L300.955,113.117z"/>
					</g>
					<g>
						<path style="fill:#AF6152;" d="M309.664,101.739c-3.862,2.704-7.568,5.541-11.466,8.194
							C301.635,106.726,305.439,103.828,309.664,101.739L309.664,101.739z"/>
					</g>
				</g>
				<g>
					<path style="fill:#BA68C8;" d="M238.06,134.4c-4.455-6.141-11.709-21.641-20.967-23.766
						c-7.291,1.911-13.941,8.694-13.941,17.003c0,8.309,2.118,12.822,8.861,21.613c6.743,8.791,20.489,22.107,29.083,26.999
						c0.067-11.683,3.977-20.646,9.966-24.665C251.062,151.585,242.516,140.542,238.06,134.4z"/>
					<path style="opacity:0.2;" d="M251.061,151.585c-4.502,3.136-9.698,8.796-10.248,14.958c-2.041-9.322,8.16-17.667,8.16-17.667
						L251.061,151.585z"/>
				</g>
			</g>
			<g id="Arm">
				<g>
					<path style="fill:#C8856A;" d="M313.936,148.834c2.087,1.921,3.88,4.458,5.222,7.431c1.133,2.511,1.65,5.282,1.634,8.03
						c-0.012,2.142,0.027,6.02-2.206,7.124c-0.633,0.313-1.348,0.431-2.055,0.45c-1.181,0.033-2.323,0.142-3.547,0.047
						c-1.297-0.1-2.59-0.258-3.876-0.459c-2.578-0.404-5.021-1.32-7.306-2.57c-4.706-2.574-7.767-6.407-11.24-10.371
						c-5.562-6.347-11.218-12.691-16.355-19.392c-3.925-5.12-9.659-5.754-12.107-10.658c-2.448-4.903-3.124-7.995-5.404-11.92
						c-1.826-3.143-7.218-8.097-8.325-12.253c-0.586-0.895-1.054-1.792-1.338-2.686c-0.491-1.548,0.344-2.653,1.4-2.555
						c-0.467-0.596-0.661-0.942-0.663-2.162c-0.003-1.427,1.58-1.661,2.349-1.285c1.532,0.749,4.34,2.518,4.34,2.518
						c1.402,0,1.921,0.045,2.473,0.174c0.8,0.186,1.499,0.657,2.178,1.119c2.134,1.452,4.269,2.905,6.403,4.357
						c1.275,0.867,2.554,1.739,3.691,2.78c2.537,2.323,4.076,5.297,5.698,8.271c1.583,2.902,3.784,5.862,5.939,8.397
						c4.245,4.994,10.447,8.844,15.652,12.735c3.402,2.543,7.083,5.248,10.53,7.731
						C309.641,145.575,311.775,146.846,313.936,148.834z"/>
					<g>
						<path style="fill:#AF6152;" d="M289.536,157.342c-5.632-6.311-11.175-12.905-16.563-19.419
							c-1.95-2.053-4.476-3.398-6.841-4.979c-5.121-3.081-6.008-9.525-8.604-14.431c-2.366-5.131-7.505-8.536-9.38-14.158
							c-0.629-1.003-2.046-3.109-1.256-4.663c0.27-0.558,0.921-0.957,1.564-0.881l-0.216,0.396
							c-0.277-0.336-0.564-0.786-0.638-1.266c-0.186-0.913-0.15-2.186,0.891-2.57c0.467-0.199,0.974-0.228,1.462-0.095
							c1.695,0.745,3.087,1.697,4.64,2.635l-0.135-0.039c0.816,0.012,1.648-0.014,2.493,0.178c0.862,0.196,1.582,0.683,2.253,1.14
							l4.043,2.764c2.638,1.88,5.582,3.503,7.679,6.116c3.105,3.878,4.751,8.563,7.902,12.374c2.85,4.024,6.825,6.937,10.645,9.981
							c2.568,2.014,5.169,3.985,7.778,5.947c5.21,3.934,10.473,7.8,15.766,11.622c-8.003-5.647-15.986-11.331-23.728-17.335
							c-2.576-2.009-5.149-4.023-7.552-6.258c-2.308-2.351-4.234-5.006-6.007-7.77c-1.71-2.802-3.038-5.809-5.132-8.29
							c-2.038-2.526-4.955-4.125-7.616-6.001l-4.054-2.746c-1.328-1.065-2.816-1.292-4.472-1.212
							c-1.519-0.791-3.086-1.938-4.646-2.612c-0.722-0.217-1.665,0.114-1.766,0.859c-0.083,0.784,0.002,1.646,0.579,2.276
							l0.366,0.46l-0.582-0.064c-2.552,0.293-0.651,3.667,0.174,4.899c0.796,2.701,2.67,4.965,4.399,7.155
							c1.791,2.201,3.708,4.37,4.894,6.986c1.914,3.79,2.945,8.035,5.319,11.546c2.676,3.356,7.078,4.656,9.978,7.843
							C278.556,144.279,283.957,150.955,289.536,157.342L289.536,157.342z"/>
					</g>
					<g>
						<path style="fill:#AF6152;" d="M259.698,110.402c-3.574-2.539-6.707-5.864-10.556-7.949c-0.05-0.008-0.087-0.007-0.087-0.007
							c0.057-0.03-0.012,0.018-0.047,0.067c-0.708,1.019-0.332,2.426,0.242,3.518c1.196,2.04,4.762,6.676,6.164,8.684
							c-2.292-2.753-4.656-5.418-6.583-8.457c-0.647-1.182-1.269-3.271,0.061-4.299c1.037-0.044,1.898,0.928,2.711,1.446
							C254.428,105.593,257.044,108.017,259.698,110.402L259.698,110.402z"/>
					</g>
					<g>
						<path style="fill:#AF6152;" d="M263.169,109.504c-4.708-3.638-9.5-7.609-14.735-10.449
							C254.058,101.297,258.872,105.313,263.169,109.504L263.169,109.504z"/>
					</g>
					<g>
						<path style="fill:#AF6152;" d="M254.46,98.126c4.225,2.09,8.028,4.987,11.466,8.194
							C262.028,103.666,258.321,100.829,254.46,98.126L254.46,98.126z"/>
					</g>
				</g>
			</g>
		</g>
	</g>
</g>
<g id="Speech_Bubble">
	<g id="Speech_Bubble_00000143587159150467715660000006034029381491428005_">
		<g id="Speech_Bubble_00000094609505071688628290000016653973531323392694_">
			
				<ellipse transform="matrix(0.1111 -0.9938 0.9938 0.1111 77.577 213.1452)" style="fill:#FFFFFF;" cx="157.936" cy="63.207" rx="28.031" ry="28.031"/>
			<path style="fill:#BA68C8;" d="M125.359,72.094c4.91,17.999,23.477,28.597,41.464,23.691c17.999-4.91,28.6-23.465,23.69-41.464
				c-4.906-17.986-23.464-28.6-41.464-23.691C131.063,35.537,120.452,54.107,125.359,72.094z M130.893,70.584
				c-4.073-14.93,4.736-30.347,19.666-34.42c14.943-4.076,30.347,4.736,34.42,19.666c4.076,14.943-4.723,30.344-19.666,34.419
				C150.383,94.323,134.969,85.527,130.893,70.584z"/>
			<path style="fill:#BA68C8;" d="M186.846,78.927l6.536,13.398c1.116,2.288-1.167,4.752-3.533,3.813l-13.856-5.495L186.846,78.927z
				"/>
		</g>
		
			<rect x="154.359" y="32.536" transform="matrix(-0.7071 -0.7071 0.7071 -0.7071 224.9225 219.5791)" style="fill:#BA68C8;" width="7.157" height="61.343"/>
	</g>
</g>
<g id="X_Icons_00000101819986124610491920000002800485526524306568_">
	<g id="X_Icons">
		<g>
			
				<rect x="108.33" y="195.039" transform="matrix(0.4775 -0.8786 0.8786 0.4775 -140.7736 220.5634)" style="fill:#E0E0E0;" width="13.481" height="67.221"/>
			
				<rect x="108.33" y="195.039" transform="matrix(-0.8786 -0.4775 0.4775 -0.8786 106.985 484.4934)" style="fill:#E0E0E0;" width="13.481" height="67.221"/>
		</g>
		<g>
			<g>
				
					<rect x="384.938" y="195.039" transform="matrix(-0.4775 -0.8786 0.8786 -0.4775 377.8224 681.9707)" style="fill:#E0E0E0;" width="13.481" height="67.221"/>
				
					<rect x="384.938" y="195.039" transform="matrix(0.8786 -0.4775 0.4775 0.8786 -61.6432 214.7959)" style="fill:#E0E0E0;" width="13.481" height="67.221"/>
			</g>
		</g>
	</g>
</g>
</svg>
