<?xml version="1.0" encoding="utf-8"?>
<!-- Generator: Adobe Illustrator 27.5.0, SVG Export Plug-In . SVG Version: 6.00 Build 0)  -->
<svg version="1.1" xmlns="http://www.w3.org/2000/svg" xmlns:xlink="http://www.w3.org/1999/xlink" x="0px" y="0px"
	 viewBox="0 0 500 500" style="enable-background:new 0 0 500 500;" xml:space="preserve">
<g id="Background_Complete">
	<g>
		<rect y="382.398" style="fill:#EBEBEB;" width="500" height="0.25"/>
		<rect x="394.358" y="393.852" style="fill:#EBEBEB;" width="50.901" height="0.25"/>
		<rect x="52.459" y="390.888" style="fill:#EBEBEB;" width="47.208" height="0.25"/>
		<rect x="378.807" y="389.208" style="fill:#EBEBEB;" width="19.192" height="0.25"/>
		<rect x="317.138" y="395.838" style="fill:#EBEBEB;" width="14.082" height="0.25"/>
		<rect x="272.79" y="395.838" style="fill:#EBEBEB;" width="35.444" height="0.25"/>
		<rect x="195.222" y="391.616" style="fill:#EBEBEB;" width="56.986" height="0.25"/>
		<path style="fill:#EBEBEB;" d="M237.014,337.799H43.915c-3.147,0-5.708-2.561-5.708-5.708V60.66c0-3.147,2.561-5.708,5.708-5.708
			h193.099c3.146,0,5.707,2.561,5.707,5.708v271.432C242.721,335.239,240.16,337.799,237.014,337.799z M43.915,55.202
			c-3.01,0-5.458,2.448-5.458,5.458v271.432c0,3.01,2.448,5.458,5.458,5.458h193.099c3.009,0,5.457-2.448,5.457-5.458V60.66
			c0-3.009-2.448-5.458-5.457-5.458H43.915z"/>
		<path style="fill:#EBEBEB;" d="M453.31,337.799H260.212c-3.147,0-5.707-2.561-5.707-5.708V60.66c0-3.147,2.561-5.708,5.707-5.708
			H453.31c3.148,0,5.708,2.561,5.708,5.708v271.432C459.019,335.239,456.458,337.799,453.31,337.799z M260.212,55.202
			c-3.009,0-5.457,2.448-5.457,5.458v271.432c0,3.01,2.448,5.458,5.457,5.458H453.31c3.01,0,5.458-2.448,5.458-5.458V60.66
			c0-3.009-2.448-5.458-5.458-5.458H260.212z"/>
	</g>
	<g>
		<g>
			<g>
				<g>
					
						<rect x="72.14" y="85.438" transform="matrix(-1 -1.224647e-16 1.224647e-16 -1 279.9784 373.9798)" style="fill:#E6E6E6;" width="135.699" height="203.103"/>
					
						<rect x="69.124" y="85.438" transform="matrix(-1 -1.224647e-16 1.224647e-16 -1 273.9472 373.9798)" style="fill:#F5F5F5;" width="135.699" height="203.103"/>
					
						<rect x="41.503" y="124.553" transform="matrix(-1.836970e-16 1 -1 -1.836970e-16 323.9636 50.0162)" style="fill:#FFFFFF;" width="190.942" height="124.873"/>
					
						<rect x="-19.794" y="185.85" transform="matrix(-1.836970e-16 1 -1 -1.836970e-16 262.6668 111.3129)" style="fill:#E6E6E6;" width="190.942" height="2.28"/>
					
						<rect x="71.363" y="151.047" transform="matrix(-1 -1.224647e-16 1.224647e-16 -1 273.9472 310.2569)" style="fill:#F5F5F5;" width="131.221" height="8.163"/>
				</g>
				<g>
					<path style="fill:#E6E6E6;" d="M63.223,75.374h150.516c0.458,0,0.833,0.375,0.833,0.833l0,0c0,0.458-0.375,0.833-0.833,0.833
						H63.223c-0.458,0-0.833-0.375-0.833-0.833l0,0C62.389,75.749,62.764,75.374,63.223,75.374z"/>
					<path style="fill:#E6E6E6;" d="M58.223,76.208c0,2.301,1.865,4.167,4.167,4.167c2.301,0,4.167-1.865,4.167-4.167
						c0-2.301-1.866-4.167-4.167-4.167C60.088,72.041,58.223,73.907,58.223,76.208z"/>
					<path style="fill:#E6E6E6;" d="M206.714,80.875L206.714,80.875c0.619,0,1.125-0.506,1.125-1.125v-2.417
						c0-0.619-0.506-1.125-1.125-1.125l0,0c-0.619,0-1.125,0.506-1.125,1.125v2.417C205.589,80.368,206.095,80.875,206.714,80.875z"
						/>
					<path style="fill:#E6E6E6;" d="M75.79,80.875L75.79,80.875c0.619,0,1.125-0.506,1.125-1.125v-2.417
						c0-0.619-0.506-1.125-1.125-1.125l0,0c-0.619,0-1.125,0.506-1.125,1.125v2.417C74.665,80.368,75.172,80.875,75.79,80.875z"/>
				</g>
			</g>
			
				<rect x="63.489" y="76.208" transform="matrix(-1 -1.224647e-16 1.224647e-16 -1 266.0732 343.8741)" style="opacity:0.5;fill:#E0E0E0;" width="139.095" height="191.458"/>
			<path style="fill:#E6E6E6;" d="M189.146,76.208c0,2.301,1.866,4.167,4.167,4.167c2.301,0,4.167-1.865,4.167-4.167
				c0-2.301-1.865-4.167-4.167-4.167C191.012,72.041,189.146,73.907,189.146,76.208z"/>
		</g>
		<g>
			<g>
				
					<rect x="186.631" y="319.125" transform="matrix(-1 -1.224647e-16 1.224647e-16 -1 400.046 697.6347)" style="fill:#F0F0F0;" width="26.785" height="59.386"/>
				
					<rect x="76.182" y="378.51" transform="matrix(-1 -1.224647e-16 1.224647e-16 -1 284.4545 760.7832)" style="fill:#F0F0F0;" width="132.09" height="3.763"/>
				<rect x="71.039" y="319.125" style="fill:#F5F5F5;" width="115.591" height="59.386"/>
				<rect x="81.57" y="326.434" style="fill:#F0F0F0;" width="94.53" height="19.476"/>
				<rect x="81.57" y="351.724" style="fill:#F0F0F0;" width="94.53" height="19.476"/>
				<path style="fill:#F5F5F5;" d="M116.79,337.508h24.089c0.649,0,1.18-0.531,1.18-1.18v-0.311c0-0.649-0.531-1.18-1.18-1.18
					H116.79c-0.649,0-1.18,0.531-1.18,1.18v0.311C115.61,336.977,116.141,337.508,116.79,337.508z"/>
				<path style="fill:#F5F5F5;" d="M116.79,362.797h24.089c0.649,0,1.18-0.531,1.18-1.18v-0.311c0-0.649-0.531-1.18-1.18-1.18
					H116.79c-0.649,0-1.18,0.531-1.18,1.18v0.311C115.61,362.267,116.141,362.797,116.79,362.797z"/>
			</g>
			<path style="fill:#F0F0F0;" d="M122.916,309.125c0,0-0.322,9.999-12.665,9.999c-12.343,0-12.665-9.999-12.665-9.999H122.916z"/>
			<path style="fill:#F0F0F0;" d="M151.789,309.125c0,0-0.322,9.999-12.665,9.999s-12.665-9.999-12.665-9.999H151.789z"/>
			<path style="fill:#F0F0F0;" d="M122.916,302.5c0,0-0.322,9.999-12.665,9.999c-12.343,0-12.665-9.999-12.665-9.999H122.916z"/>
			<path style="fill:#F0F0F0;" d="M151.789,302.5c0,0-0.322,9.999-12.665,9.999s-12.665-9.999-12.665-9.999H151.789z"/>
			<path style="fill:#F0F0F0;" d="M180.663,309.125c0,0-0.322,9.999-12.665,9.999c-12.343,0-12.665-9.999-12.665-9.999H180.663z"/>
			<path style="fill:#F0F0F0;" d="M180.663,302.5c0,0-0.322,9.999-12.665,9.999c-12.343,0-12.665-9.999-12.665-9.999H180.663z"/>
		</g>
		<g>
			
				<rect x="343.968" y="86.032" transform="matrix(-1 -1.224647e-16 1.224647e-16 -1 768.8033 288.6428)" style="fill:#E6E6E6;" width="80.868" height="116.579"/>
			
				<rect x="321.516" y="86.032" transform="matrix(-1 -1.224647e-16 1.224647e-16 -1 737.2234 288.6428)" style="fill:#F5F5F5;" width="94.192" height="116.579"/>
			
				<rect x="317.813" y="109.267" transform="matrix(-1.836970e-16 1 -1 -1.836970e-16 512.9332 -224.2903)" style="fill:#FFFFFF;" width="101.598" height="70.11"/>
			
				<rect x="316.512" y="143.683" transform="matrix(-1.836970e-16 1 -1 -1.836970e-16 512.9332 -224.2903)" style="fill:#F5F5F5;" width="104.199" height="1.276"/>
		</g>
		<g>
			
				<rect x="423.679" y="243.784" transform="matrix(-1 -1.224647e-16 1.224647e-16 -1 867.5681 620.0762)" style="fill:#F0F0F0;" width="20.211" height="132.508"/>
			
				<rect x="271.892" y="376.292" transform="matrix(-1 -1.224647e-16 1.224647e-16 -1 710.4484 758.6748)" style="fill:#F0F0F0;" width="166.665" height="6.091"/>
			<rect x="266.559" y="243.784" style="fill:#F5F5F5;" width="157.12" height="132.508"/>
			<rect x="277.478" y="291.674" style="fill:#F0F0F0;" width="135.282" height="31.525"/>
			<rect x="277.478" y="332.935" style="fill:#F0F0F0;" width="135.282" height="31.525"/>
			<path style="fill:#F5F5F5;" d="M306.098,293.836h78.042c1.125,0,2.046-0.921,2.046-2.046v-0.231c0-1.125-0.921-2.046-2.046-2.046
				h-78.042c-1.125,0-2.046,0.921-2.046,2.046v0.231C304.052,292.915,304.973,293.836,306.098,293.836z"/>
			<path style="fill:#F5F5F5;" d="M306.098,335.097h78.042c1.125,0,2.046-0.921,2.046-2.046v-0.231c0-1.125-0.921-2.046-2.046-2.046
				h-78.042c-1.125,0-2.046,0.921-2.046,2.046v0.231C304.052,334.176,304.973,335.097,306.098,335.097z"/>
			<rect x="277.478" y="250.413" style="fill:#F0F0F0;" width="135.282" height="31.525"/>
			<path style="fill:#F5F5F5;" d="M306.098,252.575h78.042c1.125,0,2.046-0.921,2.046-2.046v-0.231c0-1.125-0.921-2.046-2.046-2.046
				h-78.042c-1.125,0-2.046,0.921-2.046,2.046v0.231C304.052,251.654,304.973,252.575,306.098,252.575z"/>
		</g>
		<g>
			<path style="fill:#E0E0E0;" d="M295.614,153.115c6.432,0,11.647-5.215,11.647-11.647s-5.215-11.647-11.647-11.647h-1.429v23.294
				H295.614z"/>
			<circle style="fill:#F5F5F5;" cx="294.185" cy="141.468" r="11.647"/>
			<path style="fill:#E0E0E0;" d="M293.023,143.669c-12.923,0-23.436-10.514-23.436-23.436v-14.003c0-1.215,0.985-2.201,2.201-2.201
				c1.215,0,2.201,0.985,2.201,2.201v14.003c0,10.496,8.539,19.035,19.035,19.035c1.215,0,2.201,0.985,2.201,2.201
				C295.224,142.684,294.239,143.669,293.023,143.669z"/>
			<path style="fill:#F5F5F5;" d="M252.008,118.557h39.56c2.627,0,4.644-2.329,4.268-4.929l-3.408-23.584
				c-0.811-5.611-5.62-9.776-11.29-9.776h-18.701c-5.67,0-10.479,4.164-11.29,9.776l-3.408,23.584
				C247.364,116.228,249.381,118.557,252.008,118.557z"/>
		</g>
	</g>
</g>
<g id="Background_Simple" style="display:none;">
	<g style="display:inline;">
		<path style="fill:#407BFF;" d="M393.403,142.348c-26.191-23.633-142.043-34.38-200.365-12.606
			c-75.64,28.24-114.085,101.309-75.361,167.659c35.976,61.643,119.356,67.581,182.957,25.75
			C357.269,285.901,426.542,169.348,393.403,142.348z"/>
		<path style="opacity:0.9;fill:#FFFFFF;" d="M393.403,142.348c-26.191-23.633-142.043-34.38-200.365-12.606
			c-75.64,28.24-114.085,101.309-75.361,167.659c35.976,61.643,119.356,67.581,182.957,25.75
			C357.269,285.901,426.542,169.348,393.403,142.348z"/>
	</g>
</g>
<g id="Shadow_1_">
	<ellipse id="_x3C_Path_x3E__84_" style="fill:#F5F5F5;" cx="250" cy="416.238" rx="193.889" ry="11.323"/>
</g>
<g id="Character_2">
	<g>
		<polygon style="fill:#FF8B7B;" points="293.811,400.2 286.24,397.827 289.721,379.664 297.291,382.037 		"/>
		<polygon style="fill:#FF8B7B;" points="362.556,408.137 354.622,408.137 348.441,389.764 356.374,389.764 		"/>
		<path style="fill:#263238;" d="M353.563,407.218h9.672c0.324,0,0.605,0.225,0.676,0.542l1.567,7.052
			c0.162,0.731-0.412,1.424-1.162,1.411c-3.112-0.053-5.383-0.236-9.302-0.236c-2.411,0-9.684,0.251-13.014,0.251
			c-3.257,0-3.765-3.293-2.402-3.591c6.113-1.337,10.719-3.181,12.676-4.941C352.628,407.389,353.089,407.218,353.563,407.218z"/>
		<path style="fill:#263238;" d="M286.568,396.967l8.267,2.591c0.309,0.097,0.51,0.396,0.483,0.719l-0.614,7.198
			c-0.064,0.746-0.801,1.241-1.511,1.005c-2.966-0.985-7.221-2.511-10.97-3.686c-4.383-1.374-8.596-2.619-13.736-4.23
			c-3.108-0.974-2.986-4.387-1.596-4.263c6.328,0.561,11.561,2.236,17.668,0.684C285.223,396.817,285.914,396.763,286.568,396.967z"
			/>
		<path style="fill:#FF8B7B;" d="M332.795,169.945c-1.34,1.873-2.778,3.874-4.138,5.84c-1.367,1.982-2.712,3.978-4.046,5.972
			c-2.644,4.001-5.189,8.049-7.454,12.13c-0.583,1.02-1.071,2.046-1.618,3.068c-0.488,1.016-1.006,2.04-1.439,3.049
			c-0.403,0.989-0.865,2.047-1.237,2.997l-0.235,0.598c-0.032,0.077-0.056,0.134-0.07,0.135c-0.016-0.025-0.008-0.005-0.012-0.44
			l-0.011-0.202c-0.007-0.102-0.017-0.196-0.032-0.304c-0.022-0.167-0.047-0.302-0.093-0.493c-0.03-0.128-0.066-0.253-0.107-0.378
			l-0.066-0.185l-0.116-0.285c-0.09-0.2-0.174-0.363-0.303-0.575c-0.165-0.273-0.362-0.534-0.579-0.769
			c-0.503-0.558-1.267-1.105-2.145-1.388c-0.468-0.148-0.802-0.205-1.193-0.238c-0.187-0.015-0.392-0.017-0.561-0.01
			c-0.132,0.004-0.265,0.014-0.398,0.03c-0.609,0.083-0.874,0.178-1.199,0.298c-0.257,0.101-0.431,0.19-0.6,0.285
			c-0.112,0.062-0.252,0.153-0.332,0.209l-0.206,0.154l-0.13,0.11c-0.129,0.117-0.183,0.186-0.206,0.217
			c-0.072,0.12,0.093-0.027,0.223-0.163c0.592-0.646,1.375-1.6,2.078-2.523l2.2-2.872c1.494-1.931,3-3.909,4.602-5.805l5.259,2.798
			c-0.729,2.459-1.604,4.811-2.556,7.173c-0.497,1.168-0.978,2.354-1.544,3.523c-0.582,1.186-1.096,2.338-1.961,3.688
			c-0.238,0.358-0.451,0.702-0.95,1.269c-0.129,0.143-0.296,0.319-0.542,0.536l-0.22,0.183l-0.3,0.222
			c-0.111,0.078-0.285,0.188-0.43,0.27c-0.203,0.112-0.412,0.219-0.705,0.334c-0.362,0.132-0.663,0.241-1.311,0.327
			c-0.142,0.017-0.285,0.028-0.427,0.034c-0.179,0.006-0.393,0.003-0.589-0.013c-0.411-0.035-0.764-0.091-1.25-0.249
			c-0.45-0.148-0.904-0.371-1.261-0.612c-0.359-0.232-0.755-0.585-0.979-0.838c-0.229-0.251-0.437-0.527-0.613-0.815
			c-0.139-0.228-0.23-0.409-0.329-0.627l-0.128-0.311l-0.074-0.212c-0.046-0.143-0.088-0.288-0.123-0.433
			c-0.054-0.229-0.085-0.402-0.113-0.608l-0.041-0.419l-0.013-0.318c-0.003-0.744,0.05-1.03,0.086-1.36
			c0.04-0.303,0.08-0.548,0.119-0.771c0.077-0.452,0.161-0.825,0.247-1.19c0.305-1.428,0.769-2.664,1.211-3.995
			c0.454-1.296,0.966-2.52,1.467-3.767c0.548-1.192,1.069-2.423,1.65-3.583c2.272-4.698,4.83-9.126,7.537-13.43
			c1.355-2.149,2.751-4.265,4.209-6.337c1.456-2.093,2.888-4.115,4.509-6.197L332.795,169.945z"/>
		<path style="fill:#407BFF;" d="M336.947,164.548c1.547,7.426-15.058,25.991-15.058,25.991l-14.349-10.96
			c0,0,5.262-9.731,11.922-16.938C326.3,155.241,335.249,156.398,336.947,164.548z"/>
		<path style="opacity:0.2;" d="M324.987,169.722c-4.002,1.455-6.111,11.167-8.41,16.759l5.316,4.059c0,0,6.38-7.13,10.86-14.32
			C330.853,171.99,329.57,168.055,324.987,169.722z"/>
		<g>
			<polygon style="opacity:0.2;" points="289.721,379.67 287.926,389.031 295.5,391.405 297.295,382.044 			"/>
			<polygon style="opacity:0.2;" points="356.378,389.769 348.441,389.769 351.631,399.24 359.568,399.24 			"/>
		</g>
		<path style="fill:#407BFF;" d="M372.459,164.184c-3.183,8.527-5.5,17.29-7.241,25.574c-1.27,6.062-2.218,11.869-2.948,17.147
			c-1.717,12.37-2.252,21.867-2.895,25.044c-6.145-0.955-29.301-4.563-41.926-6.535c-1.909-45.456,11.035-67.689,11.035-67.689
			s4.749-0.533,10.202-0.387c0.719,0.015,1.448,0.052,2.187,0.1c4.786,0.306,12.512,1.687,17.826,2.777
			c1.117,0.23,2.244,0.493,3.339,0.766C367.606,162.384,372.459,164.184,372.459,164.184z"/>
		<path style="opacity:0.2;" d="M366.663,180.58l-8.79,9.76c0,0-1.6,17.51,3.17,26.53c0.33-3.02,0.73-6.37,1.23-9.96
			c0.73-5.28,1.68-11.09,2.95-17.15c0.66-3.16,1.41-6.39,2.25-9.65L366.663,180.58z"/>
		<path style="fill:#FF8B7B;" d="M360.061,139.872c-2.019,5.559-4.78,15.892-1.365,20.344c-3.414,2.57-8.173,4.468-14.593,3.324
			c-4.917-0.877-4.627-4.364-3.229-6.103c6.633-0.529,7.208-5.3,6.789-9.929L360.061,139.872z"/>
		<path style="opacity:0.2;" d="M355.006,142.988l-7.338,4.515c0.103,1.096,0.144,2.198,0.056,3.249
			c2.498,0.028,6.272-2.13,6.931-4.648C354.983,144.849,355.121,143.615,355.006,142.988z"/>
		<path style="fill:#263238;" d="M346.645,115.986c-5.596-2.592-8.133,16.205-4.208,18.916
			C346.362,137.613,357.123,120.838,346.645,115.986z"/>
		<path style="fill:#FF8B7B;" d="M362.09,131.349c-1.688,7.691-2.286,12.278-6.829,15.652c-6.835,5.075-15.865,0.023-16.508-8.017
			c-0.579-7.237,2.279-18.598,10.362-20.503C357.077,116.605,363.778,123.658,362.09,131.349z"/>
		<path style="fill:#263238;" d="M360.361,138.873c-3.493,2.022-3.348-21.622,3.468-18.158
			C375.388,126.591,368.605,134.101,360.361,138.873z"/>
		<path style="fill:#263238;" d="M368.57,124.979c-3.166,2.906-32.406-15.271-19.919-18.203
			C362.643,103.49,374.651,119.397,368.57,124.979z"/>
		<path style="fill:#263238;" d="M362.503,125.291c-3.569,2.393-37.45-4.321-29.207-14.148
			C343.164,99.377,369.904,120.33,362.503,125.291z"/>
		<path style="fill:#FF8B7B;" d="M364.261,140.455c-1.38,1.613-3.377,2.439-5.118,2.546c-2.619,0.162-3.382-2.313-2.196-4.499
			c1.068-1.967,3.717-4.422,6.126-3.555C365.446,135.803,365.839,138.61,364.261,140.455z"/>
		<g>
			<path style="fill:#407BFF;" d="M285.637,386.394l12.82,4.012c0,0,12.947-46.871,17.352-71.198c1.341-7.4,4.2-17.622,7.629-28.529
				c4.326-13.742,9.546-28.554,13.773-40.142c4.458-12.204,7.796-20.825,7.796-20.825l-27.564-4.298c0,0-22.396,64.119-25.27,88.162
				C289.181,338.575,285.637,386.394,285.637,386.394z"/>
			<path style="opacity:0.6;" d="M285.637,386.394l12.82,4.012c0,0,12.947-46.871,17.352-71.198c1.341-7.4,4.2-17.622,7.629-28.529
				c4.326-13.742,9.546-28.554,13.773-40.142c4.458-12.204,7.796-20.825,7.796-20.825l-27.564-4.298c0,0-22.396,64.119-25.27,88.162
				C289.181,338.575,285.637,386.394,285.637,386.394z"/>
		</g>
		<path style="opacity:0.2;" d="M323.438,290.679c4.326-13.742,9.546-28.554,13.773-40.142l-2.349-6.442
			C327.288,251.682,323.28,276.822,323.438,290.679z"/>
		<g>
			<path style="fill:#407BFF;" d="M332.315,227.733c0,0-2.78,67.932-1.397,91.137c1.514,25.411,16.981,78.535,16.981,78.535h14.531
				c0,0-6.239-48.234-8.7-72.932c-2.804-28.133,5.639-92.52,5.639-92.52L332.315,227.733z"/>
			<path style="opacity:0.6;" d="M332.315,227.733c0,0-2.78,67.932-1.397,91.137c1.514,25.411,16.981,78.535,16.981,78.535h14.531
				c0,0-6.239-48.234-8.7-72.932c-2.804-28.133,5.639-92.52,5.639-92.52L332.315,227.733z"/>
		</g>
		<polygon style="fill:#407BFF;" points="346.159,397.72 363.27,397.72 363.27,392.608 344.143,392.275 		"/>
		<polygon style="fill:#407BFF;" points="283.934,386.187 299.21,390.976 300.757,386.04 283.762,380.428 		"/>
		<path style="fill:#263238;" d="M349.973,131.682c-0.099,0.632-0.514,1.093-0.927,1.028s-0.668-0.629-0.57-1.262
			c0.099-0.632,0.514-1.092,0.927-1.028C349.816,130.484,350.072,131.049,349.973,131.682z"/>
		<path style="fill:#263238;" d="M342.826,130.567c-0.099,0.632-0.514,1.092-0.927,1.028c-0.413-0.064-0.668-0.629-0.57-1.261
			c0.099-0.632,0.514-1.093,0.927-1.028S342.925,129.934,342.826,130.567z"/>
		<path style="fill:#FF5652;" d="M345.049,131.236c0,0-2.007,3.423-3.864,4.936c0.956,1.219,2.932,1.038,2.932,1.038
			L345.049,131.236z"/>
		<path style="fill:#263238;" d="M346.519,139.317c-0.265-0.006-0.542-0.029-0.832-0.074c-0.103-0.016-0.173-0.112-0.157-0.214
			c0.016-0.103,0.114-0.173,0.214-0.157c2.778,0.43,4.373-1.303,4.389-1.321c0.069-0.077,0.188-0.083,0.265-0.014
			c0.077,0.07,0.083,0.188,0.014,0.266C350.35,137.873,348.974,139.368,346.519,139.317z"/>
		<path style="fill:#263238;" d="M352.536,129.717c-0.131-0.003-0.257-0.074-0.324-0.198c-0.793-1.476-2.171-1.61-2.185-1.611
			c-0.207-0.018-0.36-0.2-0.343-0.406c0.018-0.206,0.201-0.359,0.406-0.342c0.073,0.006,1.8,0.173,2.784,2.004
			c0.098,0.183,0.03,0.411-0.153,0.509C352.663,129.705,352.599,129.719,352.536,129.717z"/>
		<path style="fill:#263238;" d="M340.13,127.628c-0.072-0.001-0.143-0.023-0.206-0.067c-0.17-0.118-0.213-0.353-0.094-0.523
			c1.188-1.711,2.916-1.666,2.994-1.674c0.207,0.006,0.371,0.179,0.364,0.387c-0.006,0.207-0.177,0.369-0.383,0.365
			c-0.072-0.005-1.404-0.022-2.358,1.351C340.373,127.574,340.252,127.631,340.13,127.628z"/>
		<path style="fill:#407BFF;" d="M350.94,408.604c-0.604,0-1.169-0.103-1.528-0.405c-0.284-0.239-0.415-0.573-0.389-0.993
			c0.019-0.313,0.186-0.461,0.322-0.531c0.875-0.452,3.437,1.121,3.726,1.302c0.064,0.04,0.098,0.115,0.086,0.19
			c-0.012,0.075-0.068,0.135-0.141,0.153C352.464,408.452,351.673,408.604,350.94,408.604z M349.76,406.962
			c-0.098,0-0.181,0.015-0.244,0.047c-0.051,0.026-0.109,0.074-0.119,0.221c-0.019,0.299,0.065,0.522,0.256,0.682
			c0.434,0.364,1.47,0.414,2.817,0.143C351.575,407.537,350.369,406.962,349.76,406.962z"/>
		<path style="fill:#407BFF;" d="M352.971,408.325c-0.031,0-0.062-0.007-0.09-0.022c-0.821-0.446-2.408-2.185-2.241-3.069
			c0.031-0.161,0.149-0.438,0.598-0.493c0.292-0.033,0.561,0.046,0.8,0.242c0.922,0.753,1.111,3.043,1.119,3.139
			c0.005,0.069-0.027,0.135-0.085,0.172C353.042,408.315,353.007,408.325,352.971,408.325z M351.37,405.109
			c-0.028,0-0.056,0.002-0.085,0.005c-0.244,0.03-0.266,0.142-0.275,0.19c-0.099,0.522,0.912,1.836,1.728,2.455
			c-0.092-0.668-0.346-2.003-0.937-2.486C351.666,405.163,351.524,405.109,351.37,405.109z"/>
		<path style="fill:#407BFF;" d="M285.495,397.78c-0.009,0-0.017,0-0.026-0.001c-1.296-0.139-3.559-0.521-4.159-1.516
			c-0.181-0.3-0.202-0.629-0.063-0.978c0.083-0.208,0.237-0.341,0.445-0.384c1.086-0.232,3.64,2.273,3.928,2.558
			c0.057,0.056,0.072,0.142,0.037,0.214C285.628,397.737,285.565,397.777,285.495,397.78z M281.844,395.26
			c-0.026,0.001-0.051,0.003-0.074,0.008c-0.085,0.018-0.136,0.064-0.173,0.156c-0.094,0.237-0.083,0.448,0.035,0.644
			c0.337,0.559,1.56,1.021,3.318,1.268C283.93,396.387,282.477,395.241,281.844,395.26z"/>
		<path style="fill:#407BFF;" d="M285.495,397.78c-0.047,0.001-0.094-0.015-0.13-0.047c-0.785-0.697-2.082-2.901-1.675-3.713
			c0.096-0.191,0.316-0.395,0.825-0.292c0.378,0.078,0.68,0.286,0.898,0.619c0.715,1.093,0.28,3.195,0.261,3.285
			c-0.014,0.065-0.062,0.118-0.125,0.139C285.531,397.776,285.513,397.779,285.495,397.78z M284.244,394.075
			c-0.165,0.005-0.203,0.082-0.219,0.112c-0.244,0.488,0.583,2.159,1.34,3.012c0.09-0.626,0.202-1.93-0.267-2.647
			c-0.164-0.25-0.379-0.399-0.659-0.457C284.359,394.079,284.295,394.073,284.244,394.075z"/>
		<path style="fill:#FF8B7B;" d="M376.66,173.507c-0.151,1.385-0.302,2.576-0.509,3.843c-0.197,1.247-0.412,2.488-0.639,3.727
			c-0.434,2.48-1.02,4.933-1.623,7.389c-1.276,4.899-2.811,9.768-4.96,14.564l-0.826,1.791l-0.913,1.781l-0.229,0.444l-0.114,0.222
			l-0.173,0.317c-0.323,0.573-0.732,1.183-1.286,1.781c-1.066,1.211-2.891,2.256-4.543,2.488c-1.658,0.272-2.985,0.027-4.033-0.263
			c-1.051-0.306-1.893-0.697-2.645-1.102c-1.496-0.808-2.637-1.724-3.712-2.632c-1.069-0.91-2.024-1.852-2.919-2.82
			c-0.901-0.96-1.746-1.938-2.543-2.943c-1.614-2.009-3.042-4.036-4.387-6.273l4.597-3.789c3.564,2.948,7.285,6.09,10.853,8.225
			c0.872,0.522,1.761,0.944,2.445,1.186c0.338,0.117,0.628,0.171,0.751,0.158c0.121-0.006,0.029-0.123-0.439-0.085
			c-0.46,0.013-1.187,0.411-1.459,0.712c-0.151,0.146-0.226,0.246-0.268,0.285c0,0-0.017,0.029-0.007,0.007l0.039-0.095l0.078-0.189
			l0.155-0.378l0.624-1.506l0.567-1.559c1.523-4.161,2.674-8.619,3.672-13.119c0.509-2.252,0.948-4.528,1.381-6.808
			c0.423-2.252,0.795-4.637,1.121-6.763L376.66,173.507z"/>
		<path style="fill:#407BFF;" d="M378.213,168.799c4.308,6.243-2.421,27.576-2.421,27.576l-18.997-4.53
			c0,0,1.335-10.177,4.603-19.419C364.959,162.359,372.994,161.237,378.213,168.799z"/>
		<path style="fill:#FF8B7B;" d="M345.78,192.547l-4.665-6.565l-5.059,8.781c0,0,5.213,4.707,8.015,2.224L345.78,192.547z"/>
		<polygon style="fill:#FF8B7B;" points="334.773,184.053 330.932,191.507 336.055,194.763 341.114,185.982 		"/>
		<path style="fill:#FF8B7B;" d="M314.299,187.719l4.934-6.366l4.69,8.983c0,0-5.404,4.487-8.101,1.889L314.299,187.719z"/>
		<polygon style="fill:#FF8B7B;" points="325.649,179.689 329.177,187.296 323.923,190.337 319.233,181.353 		"/>
	</g>
</g>
<g id="Character_1">
	<g>
		<path style="fill:#263238;" d="M142.795,132c-1.71-3.25-0.66-8.766,8.6-8.851c9.259-0.086,19.696,0.351,18.096-8.065
			c7.993,1.331,13.501,8.489,9.635,13.197c-6.183,7.53-1.85,12.856-6.203,15.761c-6.077,4.056-7.985,23.981-21.318,19.093
			C152.851,155.75,132.045,138.722,142.795,132z"/>
		<path style="fill:#FFC3BD;" d="M185.82,181.958c0.219,2.387,0.506,4.996,0.866,7.489c0.376,2.514,0.726,5.037,1.221,7.522
			c0.953,4.979,2.187,9.874,3.82,14.539l0.658,1.72l0.3,0.786c0.009,0.045-0.002,0.035-0.072-0.031
			c-0.116-0.146-0.594-0.372-0.728-0.332c-0.145,0.019,0.058,0.066,0.371,0.004c0.666-0.125,1.665-0.567,2.63-1.112
			c0.985-0.544,1.991-1.207,2.985-1.919c1.997-1.425,3.987-3.022,5.91-4.71c1.931-1.672,3.868-3.434,5.723-5.174l3.318,2.805
			c-3.148,4.441-6.572,8.518-10.697,12.336c-1.051,0.938-2.15,1.855-3.383,2.725c-1.254,0.853-2.585,1.69-4.448,2.302
			c-0.949,0.281-2.076,0.538-3.526,0.367c-0.709-0.076-1.509-0.323-2.234-0.701c-0.743-0.378-1.372-0.921-1.874-1.479
			c-0.499-0.564-0.851-1.142-1.125-1.689c-0.085-0.164-0.113-0.231-0.148-0.309l-0.108-0.239l-0.216-0.479l-0.862-1.918
			c-2.139-5.15-3.691-10.432-4.816-15.755c-0.575-2.662-1.08-5.329-1.453-8.017c-0.372-2.712-0.705-5.326-0.867-8.182
			L185.82,181.958z"/>
		<path style="fill:#FFC3BD;" d="M182.5,172.064c3.032,0.773,4.738,20.808,4.738,20.808l-8.055,4.846c0,0-4.871-14.798-4.128-21.193
			C175.594,171.885,180.222,171.484,182.5,172.064z"/>
		<path style="fill:#FFC3BD;" d="M209.405,200.196l4.635-7.321l2.628,8.319c0,0-3.802,3.987-7.239,3.036L209.405,200.196z"/>
		<polygon style="fill:#FFC3BD;" points="220.835,190.454 222.658,197.538 216.669,201.195 214.04,192.875 		"/>
		<polygon style="fill:#FFC3BD;" points="165.28,407.517 173.859,407.517 177.504,376.008 165.726,376.008 		"/>
		<polygon style="fill:#FFC3BD;" points="111.4,395.938 119.705,398.087 132.465,369.169 120.968,365.917 		"/>
		<path style="fill:#263238;" d="M121.028,396.707l-8.871-3.77c-0.323-0.137-0.68-0.024-0.859,0.272l-3.993,6.589
			c-0.414,0.684-0.081,1.639,0.669,1.942c3.115,1.261,4.683,1.713,8.584,3.37c2.4,1.02,5.8,2.759,9.115,4.167
			c3.242,1.377,4.883-1.794,3.629-2.677c-5.622-3.96-5.82-6.211-7.16-8.848C121.9,397.278,121.501,396.908,121.028,396.707z"/>
		<path style="fill:#263238;" d="M174.153,406.523h-9.639c-0.351,0-0.635,0.244-0.685,0.586l-1.098,7.626
			c-0.114,0.791,0.566,1.539,1.375,1.526c3.36-0.058,4.98-0.255,9.218-0.255c2.608,0,8.001,0.271,11.603,0.271
			c3.522,0,3.793-3.561,2.293-3.883c-6.723-1.446-9.369-3.44-11.635-5.342C175.179,406.708,174.667,406.523,174.153,406.523z"/>
		<path style="fill:#263238;" d="M183.036,172.051c0,0,4.087,1.439-4.1,51.78c-13.826,0-28.116,0-34.844,0
			c0.585-14.181,0.601-22.926-6.177-52.029c0,0,7.301-1.588,14.796-1.95c5.864-0.283,10.667-0.47,15.822,0.001
			C175.33,170.474,183.036,172.051,183.036,172.051z"/>
		<path style="fill:#FFC3BD;" d="M154.28,152.038c0.998,5.091,1.994,14.419-1.568,17.815c0,0,5.456,6.319,15.347,11.762
			c4.945-8.006,0.475-11.762,0.475-11.762c-5.677-1.356-5.53-5.568-4.541-9.523L154.28,152.038z"/>
		<path style="fill:#407BFF;" d="M154.684,165.53c0.792,0.062,5.62,0.407,8.952-0.178c0.061-0.011,0.116,0.018,0.139,0.076
			c0.091,0.235,0.336,0.86,0.524,1.292c0.027,0.063,0.009,0.135-0.052,0.166c-1.003,0.503-5.95,1.152-9.989,0.393
			c-0.078-0.015-0.125-0.093-0.104-0.17c0.169-0.594,0.33-1.235,0.392-1.482C154.562,165.563,154.62,165.525,154.684,165.53z"/>
		<path style="opacity:0.2;" d="M158.24,155.421l5.749,4.905c-0.237,0.936-0.422,1.886-0.488,2.808
			c-2.169-0.314-5.148-2.694-5.378-4.965C158.007,157.037,158.055,155.949,158.24,155.421z"/>
		<path style="fill:#FFC3BD;" d="M148.91,142.7c1.996,8.277,2.664,11.823,7.652,15.37c7.502,5.335,17.232,1.073,17.749-7.634
			c0.465-7.837-2.877-20.057-11.658-21.936C154.002,126.648,146.914,134.422,148.91,142.7z"/>
		<path style="fill:#407BFF;" d="M178.936,223.832c0,0,6.767,66.088,6.205,92.251c-0.585,27.213-6.054,60.866-6.054,60.866h-14.908
			c0,0,0.64-32.063-0.385-58.789c-1.118-29.136-10.373-94.328-10.373-94.328H178.936z"/>
		<polygon style="fill:#263238;" points="162.898,378.444 179.767,378.444 181.005,374.102 162.114,373.571 		"/>
		<path style="opacity:0.2;" d="M163.907,240.275c8.558,17.216,1.718,48.622-1.308,60.307c-1.552-17.549-4.168-39-6.208-54.753
			C157.687,236.916,159.96,232.338,163.907,240.275z"/>
		<path style="fill:#407BFF;" d="M169.735,223.832c0,0-7.893,68.707-13.854,90.765c-7.077,26.188-21.544,55.102-21.544,55.102
			l-14.96-4.232c0,0,8.413-35.297,13.824-49.094c11.548-29.445,1.663-73.327,10.892-92.541H169.735z"/>
		<polygon style="fill:#263238;" points="118.452,367.747 134.005,372.062 136.804,368.073 119.553,362.324 		"/>
		<path style="fill:#263238;" d="M162.893,142.867c0.121,0.681,0.58,1.17,1.025,1.091c0.446-0.079,0.709-0.695,0.588-1.377
			c-0.121-0.681-0.58-1.17-1.025-1.091C163.036,141.569,162.772,142.185,162.893,142.867z"/>
		<path style="fill:#263238;" d="M170.595,141.503c0.121,0.681,0.58,1.17,1.025,1.091s0.709-0.695,0.588-1.377
			c-0.121-0.681-0.58-1.17-1.025-1.091C170.737,140.205,170.474,140.821,170.595,141.503z"/>
		<path style="fill:#263238;" d="M170.993,140.198l1.553-0.762C172.546,139.437,171.932,140.864,170.993,140.198z"/>
		<path style="fill:#ED847E;" d="M168.413,142.958c0,0,1.676,2.729,3.199,3.919c-0.751,0.999-2.348,0.886-2.348,0.886
			L168.413,142.958z"/>
		<path style="fill:#263238;" d="M165.66,150.975c0.364,0,0.751-0.032,1.16-0.104c0.11-0.02,0.184-0.125,0.165-0.236
			c-0.02-0.11-0.122-0.184-0.236-0.165c-2.988,0.531-4.757-1.312-4.774-1.33c-0.077-0.083-0.206-0.086-0.287-0.01
			c-0.082,0.077-0.086,0.206-0.01,0.287C161.745,149.49,163.169,150.975,165.66,150.975z"/>
		<path style="fill:#263238;" d="M146.128,130.833c4.917,2.417,9.833,1.37,10.083,7.477c0.25,6.107-8.167,16.023-10.083,9.023
			C144.212,140.333,146.128,130.833,146.128,130.833z"/>
		<path style="fill:#263238;" d="M147.596,134.043c6.358,2.57,23.844,3.233,23.463-4.6c-0.381-7.833-15.497-4.371-19.834-2.698
			C146.888,128.419,147.596,134.043,147.596,134.043z"/>
		<path style="fill:#FFC3BD;" d="M148.557,148.94c0.666,1.635,2.025,2.81,3.37,3.351c2.024,0.814,3.275-0.939,2.912-2.974
			c-0.326-1.832-1.773-4.464-3.901-4.411C148.843,144.959,147.796,147.071,148.557,148.94z"/>
		<path style="fill:#263238;" d="M159.909,138.309c0.107,0,0.215-0.042,0.295-0.126c1.248-1.314,2.721-1.061,2.738-1.059
			c0.218,0.038,0.432-0.105,0.473-0.327c0.04-0.221-0.105-0.432-0.327-0.473c-0.077-0.014-1.926-0.333-3.475,1.299
			c-0.154,0.163-0.147,0.42,0.015,0.575C159.708,138.272,159.808,138.309,159.909,138.309z"/>
		<path style="fill:#263238;" d="M172.517,137.264c0.101,0,0.202-0.037,0.281-0.112c0.162-0.155,0.168-0.413,0.013-0.575
			c-1.553-1.625-3.401-1.302-3.479-1.287c-0.221,0.042-0.366,0.253-0.325,0.474c0.041,0.22,0.253,0.365,0.473,0.325
			c0.072-0.014,1.509-0.244,2.743,1.049C172.303,137.222,172.41,137.264,172.517,137.264z"/>
		<path style="fill:#FFC3BD;" d="M142.271,184.292c-1.73,4.516-3.39,9.269-4.857,13.942c-1.426,4.698-2.713,9.443-3.413,14.077
			c-0.108,0.585-0.163,1.151-0.221,1.719l-0.092,0.854l-0.04,0.361c-0.005-0.026-0.014-0.035-0.017-0.024
			c-0.065,0.113,0.221,1.026,0.706,1.856c0.991,1.741,2.524,3.609,4.113,5.388c3.212,3.588,6.91,7.032,10.559,10.379l-2.522,3.538
			c-4.532-2.636-8.74-5.586-12.796-9.071c-2.006-1.785-3.963-3.644-5.735-6.163c-0.855-1.301-1.797-2.694-2.162-5.117
			c-0.04-0.304-0.06-0.629-0.058-0.973c-0.002-0.207,0.005-0.218,0.008-0.327l0.012-0.26l0.048-1.042
			c0.031-0.697,0.061-1.395,0.142-2.065c0.517-5.441,1.706-10.567,3.123-15.595c1.421-5.046,3.069-9.889,5.084-14.796
			L142.271,184.292z"/>
		<path style="fill:#FFC3BD;" d="M137.951,171.802c-3.418,1.396-7.697,20.105-7.697,20.105l7.271,5.958
			c0,0,6.84-13.944,7.146-20.375C144.9,172.655,140.975,170.567,137.951,171.802z"/>
		<path style="fill:#407BFF;" d="M124.943,399.413c0.302-0.146,0.508-0.419,0.614-0.813c0.09-0.334-0.031-0.556-0.149-0.684
			c-0.742-0.806-3.798-0.277-4.144-0.214c-0.078,0.014-0.143,0.075-0.161,0.154c-0.018,0.079,0.012,0.161,0.077,0.209
			c0.92,0.677,2.616,1.758,3.644,1.397C124.865,399.448,124.904,399.432,124.943,399.413z M121.823,398.023
			c1.228-0.176,2.895-0.256,3.286,0.168c0.049,0.053,0.1,0.136,0.055,0.303c-0.083,0.31-0.241,0.501-0.474,0.584
			C124.135,399.274,123.081,398.881,121.823,398.023z"/>
		<path style="fill:#407BFF;" d="M122.687,397.645c0.89-0.431,1.804-1.095,1.931-1.707c0.038-0.185,0.036-0.534-0.408-0.789
			c-0.282-0.163-0.584-0.191-0.898-0.087c-1.176,0.395-2.158,2.664-2.199,2.761c-0.028,0.066-0.019,0.143,0.024,0.201
			c0.043,0.058,0.114,0.088,0.186,0.08C121.666,398.065,122.172,397.893,122.687,397.645z M123.321,395.497
			c0.04-0.02,0.081-0.036,0.121-0.049c0.201-0.067,0.386-0.05,0.566,0.053c0.227,0.131,0.232,0.258,0.213,0.354
			c-0.122,0.589-1.561,1.488-2.566,1.768C121.998,396.927,122.656,395.818,123.321,395.497z"/>
		<path style="fill:#407BFF;" d="M177.374,408.023c0.853,0,1.64-0.132,2.081-0.528c0.28-0.251,0.403-0.585,0.367-0.989
			c-0.021-0.242-0.141-0.429-0.344-0.541c-1.051-0.577-4.471,1.17-4.857,1.372c-0.077,0.04-0.12,0.124-0.107,0.209
			c0.012,0.085,0.077,0.154,0.162,0.17C175.403,407.861,176.43,408.023,177.374,408.023z M178.903,406.247
			c0.157,0,0.286,0.023,0.379,0.074c0.083,0.046,0.125,0.114,0.135,0.22c0.024,0.274-0.052,0.487-0.234,0.651
			c-0.521,0.468-1.933,0.551-3.834,0.234C176.527,406.861,178.09,406.247,178.903,406.247z"/>
		<path style="fill:#407BFF;" d="M174.714,407.72c0.028,0,0.057-0.006,0.083-0.018c1.023-0.462,3.045-2.313,2.887-3.284
			c-0.038-0.23-0.2-0.516-0.763-0.573c-0.419-0.039-0.795,0.076-1.126,0.351c-1.078,0.898-1.276,3.208-1.284,3.305
			c-0.006,0.072,0.027,0.141,0.085,0.183C174.632,407.707,174.673,407.72,174.714,407.72z M176.757,404.242
			c0.04,0,0.081,0.002,0.122,0.006c0.371,0.038,0.396,0.186,0.403,0.234c0.095,0.583-1.278,2.039-2.32,2.67
			c0.1-0.672,0.385-2.058,1.093-2.646C176.269,404.33,176.5,404.242,176.757,404.242z"/>
		<path style="fill:#407BFF;" d="M143.571,221.787l-0.891,3.119c-0.122,0.242,0.165,0.489,0.568,0.489h35.861
			c0.314,0,0.574-0.154,0.594-0.351l0.314-3.119c0.022-0.216-0.251-0.399-0.594-0.399h-35.285
			C143.879,221.525,143.649,221.631,143.571,221.787z"/>
		<path style="opacity:0.8;fill:#FFFFFF;" d="M143.571,221.787l-0.891,3.119c-0.122,0.242,0.165,0.489,0.568,0.489h35.861
			c0.314,0,0.574-0.154,0.594-0.351l0.314-3.119c0.022-0.216-0.251-0.399-0.594-0.399h-35.285
			C143.879,221.525,143.649,221.631,143.571,221.787z"/>
		<path style="fill:#407BFF;" d="M148.31,225.732h-0.945c-0.188,0-0.332-0.097-0.319-0.216l0.443-4.052
			c0.013-0.119,0.177-0.216,0.366-0.216h0.945c0.188,0,0.332,0.097,0.319,0.216l-0.443,4.052
			C148.663,225.635,148.498,225.732,148.31,225.732z"/>
		<path style="fill:#407BFF;" d="M176.453,225.732h-0.945c-0.188,0-0.331-0.097-0.319-0.216l0.443-4.052
			c0.013-0.119,0.178-0.216,0.366-0.216h0.945c0.188,0,0.331,0.097,0.319,0.216l-0.443,4.052
			C176.806,225.635,176.641,225.732,176.453,225.732z"/>
		<path style="fill:#407BFF;" d="M162.381,225.732h-0.945c-0.188,0-0.332-0.097-0.319-0.216l0.443-4.052
			c0.013-0.119,0.178-0.216,0.366-0.216h0.945c0.188,0,0.331,0.097,0.319,0.216l-0.443,4.052
			C162.734,225.635,162.57,225.732,162.381,225.732z"/>
		<path style="fill:#FFC3BD;" d="M148.062,232.105l9.235,0.792l-6.172,6.167c0,0-5.29-1.536-6.031-5.025L148.062,232.105z"/>
		<g>
			<path style="fill:#407BFF;" d="M210.296,189.027l-6.015,28.7c-0.326,1.554,0.679,3.093,2.234,3.418l54.636,11.451
				c1.554,0.326,3.092-0.679,3.418-2.234l6.015-28.7c0.17-0.813-0.024-1.623-0.469-2.257c-0.408-0.575-1.023-1.006-1.765-1.162
				l-54.636-11.451c-0.742-0.156-1.478-0.008-2.083,0.355C210.969,187.55,210.466,188.214,210.296,189.027z"/>
			<path style="opacity:0.5;" d="M210.296,189.027l-6.015,28.7c-0.326,1.554,0.679,3.093,2.234,3.418l54.636,11.451
				c1.554,0.326,3.092-0.679,3.418-2.234l6.015-28.7c0.17-0.813-0.024-1.623-0.469-2.257c-0.408-0.575-1.023-1.006-1.765-1.162
				l-54.636-11.451c-0.742-0.156-1.478-0.008-2.083,0.355C210.969,187.55,210.466,188.214,210.296,189.027z"/>
			<path style="fill:#407BFF;" d="M270.119,199.41l-8.63,4.39l-17.12,8.69c-4.92,2.5-10.91,1.25-14.41-3.021l-11.85-14.43
				l-6.48-7.89c0.61-0.36,1.34-0.51,2.09-0.36l4.77,1l43.36,9.09l6.5,1.36C269.088,198.4,269.708,198.83,270.119,199.41z"/>
			<g>
				<path style="fill:#407BFF;" d="M263.559,164.49l-1.71,32.39l-0.36,6.92l-17.12,8.69c-4.92,2.5-10.91,1.25-14.41-3.021
					l-11.85-14.43l0.38-7.25l1.35-25.6c0.08-1.44,1.32-2.56,2.76-2.49l38.47,2.03C262.518,161.81,263.628,163.049,263.559,164.49z"
					/>
				<path style="opacity:0.9;fill:#FFFFFF;" d="M263.559,164.49l-1.71,32.39l-0.36,6.92l-17.12,8.69
					c-4.92,2.5-10.91,1.25-14.41-3.021l-11.85-14.43l0.38-7.25l1.35-25.6c0.08-1.44,1.32-2.56,2.76-2.49l38.47,2.03
					C262.518,161.81,263.628,163.049,263.559,164.49z"/>
				<path style="opacity:0.1;" d="M232.031,205.486l-13.763-13.483l-0.159,3.037l11.85,14.43c3.5,4.271,9.49,5.521,14.41,3.021
					l17.12-8.69l0.169-3.244l-17.259,7.283C240.178,209.618,235.302,208.691,232.031,205.486z"/>
				<g>
					<path style="fill:#407BFF;" d="M224,171.924l0.418-7.931l1.601,0.084l-0.418,7.931L224,171.924z"/>
					<path style="fill:#407BFF;" d="M227.143,172.089l0.418-7.931l1.558,0.082l2.967,5.467l0.279-5.296l1.488,0.078l-0.418,7.931
						l-1.607-0.085l-2.925-5.34l-0.272,5.172L227.143,172.089z"/>
					<path style="fill:#407BFF;" d="M237.151,172.616l-2.417-8.08l1.737,0.092l1.698,5.976l2.251-5.768l1.699,0.089l-3.258,7.781
						L237.151,172.616z"/>
					<path style="fill:#407BFF;" d="M242.469,172.897l0.418-7.931l1.601,0.084l-0.418,7.931L242.469,172.897z"/>
					<path style="fill:#407BFF;" d="M247.382,173.155l0.347-6.589l-2.353-0.124l0.071-1.342l6.303,0.332l-0.071,1.342l-2.348-0.124
						l-0.347,6.589L247.382,173.155z"/>
					<path style="fill:#407BFF;" d="M252.364,173.418l0.418-7.931l5.881,0.31l-0.071,1.342l-4.279-0.225l-0.093,1.758l3.982,0.21
						l-0.07,1.336l-3.982-0.21l-0.114,2.159l4.431,0.234l-0.07,1.336L252.364,173.418z"/>
				</g>
			</g>
		</g>
		<polygon style="fill:#FFC3BD;" points="162.577,237.811 157.131,242.694 149.814,238.574 157.297,232.897 		"/>
		<path style="fill:#263238;" d="M163.291,141.563l1.553-0.762C164.844,140.801,164.231,142.228,163.291,141.563z"/>
	</g>
</g>
</svg>
